<svg xmlns="http://www.w3.org/2000/svg" width="380" height="1001" viewBox="0 0 380 1001" font-family="'DejaVu Sans Mono', 'Menlo', 'Consolas', 'Liberation Mono', 'Courier New', monospace" font-size="14px">
  <defs>
  </defs>
  <rect x="0" y="0" width="380" height="1001" fill="#ffffff"/>
  <path d="M48 40 H332 a8 8 0 0 1 8 8 V953 a8 8 0 0 1 -8 8 H48 a8 8 0 0 1 -8 -8 V48 a8 8 0 0 1 8 -8 Z" fill="#f6f7fa" stroke="#dcdfe7"/>
  <text x="54" y="68.4" fill="#1f2328" text-anchor="start">HOLD (6)</text>
  <path d="M62 83 H318 a8 8 0 0 1 8 8 V217 a8 8 0 0 1 -8 8 H62 a8 8 0 0 1 -8 -8 V91 a8 8 0 0 1 8 -8 Z" fill="#fef3c7" stroke="#d97706"/>
  <text x="190" y="111.4" fill="#1f2328" text-anchor="middle">EXP-09 · MPE</text>
  <text x="190" y="130.4" fill="#1f2328" text-anchor="middle">Personalized Assessment</text>
  <text x="190" y="149.4" fill="#1f2328" text-anchor="middle">Engine v0</text>
  <text x="190" y="168.4" fill="#1f2328" text-anchor="middle">→ No further EXP-09</text>
  <text x="190" y="187.4" fill="#1f2328" text-anchor="middle">implementation/reconstruction</text>
  <text x="190" y="206.4" fill="#1f2328" text-anchor="middle">unless the original s…</text>
  <path d="M62 235 H318 a8 8 0 0 1 8 8 V369 a8 8 0 0 1 -8 8 H62 a8 8 0 0 1 -8 -8 V243 a8 8 0 0 1 8 -8 Z" fill="#fef3c7" stroke="#d97706"/>
  <text x="190" y="263.4" fill="#1f2328" text-anchor="middle">EXP-10 · MPE</text>
  <text x="190" y="282.4" fill="#1f2328" text-anchor="middle">Munder Difflin controlled</text>
  <text x="190" y="301.4" fill="#1f2328" text-anchor="middle">pilot</text>
  <text x="190" y="320.4" fill="#1f2328" text-anchor="middle">→ Do not retry until the</text>
  <text x="190" y="339.4" fill="#1f2328" text-anchor="middle">Windows Codex-adapter</text>
  <text x="190" y="358.4" fill="#1f2328" text-anchor="middle">failure has a scoped rem…</text>
  <path d="M62 387 H318 a8 8 0 0 1 8 8 V502 a8 8 0 0 1 -8 8 H62 a8 8 0 0 1 -8 -8 V395 a8 8 0 0 1 8 -8 Z" fill="#fef3c7" stroke="#d97706"/>
  <text x="190" y="415.4" fill="#1f2328" text-anchor="middle">EXP-COMPUTE-BUDGET · MPE</text>
  <text x="190" y="434.4" fill="#1f2328" text-anchor="middle">Compute Budget Gate</text>
  <text x="190" y="453.4" fill="#1f2328" text-anchor="middle">→ Collect 5–10 observed</text>
  <text x="190" y="472.4" fill="#1f2328" text-anchor="middle">usage records and rerun</text>
  <text x="190" y="491.4" fill="#1f2328" text-anchor="middle">the retrospective evalu…</text>
  <path d="M62 520 H318 a8 8 0 0 1 8 8 V654 a8 8 0 0 1 -8 8 H62 a8 8 0 0 1 -8 -8 V528 a8 8 0 0 1 8 -8 Z" fill="#fef3c7" stroke="#d97706"/>
  <text x="190" y="548.4" fill="#1f2328" text-anchor="middle">EXP-STAGE3-SYNTHETIC · MPE</text>
  <text x="190" y="567.4" fill="#1f2328" text-anchor="middle">Synthetic Stakeholder</text>
  <text x="190" y="586.4" fill="#1f2328" text-anchor="middle">Evaluation</text>
  <text x="190" y="605.4" fill="#1f2328" text-anchor="middle">→ Complete EXP-12</text>
  <text x="190" y="624.4" fill="#1f2328" text-anchor="middle">prospective validation and</text>
  <text x="190" y="643.4" fill="#1f2328" text-anchor="middle">the Stage 2 review before…</text>
  <path d="M62 672 H318 a8 8 0 0 1 8 8 V787 a8 8 0 0 1 -8 8 H62 a8 8 0 0 1 -8 -8 V680 a8 8 0 0 1 8 -8 Z" fill="#fef3c7" stroke="#d97706"/>
  <text x="190" y="700.4" fill="#1f2328" text-anchor="middle">EXP-17 · MPE</text>
  <text x="190" y="719.4" fill="#1f2328" text-anchor="middle">PrivetMaket backend recon</text>
  <text x="190" y="738.4" fill="#1f2328" text-anchor="middle">→ If needed, capture a</text>
  <text x="190" y="757.4" fill="#1f2328" text-anchor="middle">redacted anonymous browser</text>
  <text x="190" y="776.4" fill="#1f2328" text-anchor="middle">Network manifest only…</text>
  <path d="M62 805 H318 a8 8 0 0 1 8 8 V939 a8 8 0 0 1 -8 8 H62 a8 8 0 0 1 -8 -8 V813 a8 8 0 0 1 8 -8 Z" fill="#fef3c7" stroke="#d97706"/>
  <text x="190" y="833.4" fill="#1f2328" text-anchor="middle">EXP-22 · MPE</text>
  <text x="190" y="852.4" fill="#1f2328" text-anchor="middle">Colibri local inference /</text>
  <text x="190" y="871.4" fill="#1f2328" text-anchor="middle">Brio routing</text>
  <text x="190" y="890.4" fill="#1f2328" text-anchor="middle">→ Bounded released-weight</text>
  <text x="190" y="909.4" fill="#1f2328" text-anchor="middle">quality run: execute the</text>
  <text x="190" y="928.4" fill="#1f2328" text-anchor="middle">frozen CP-01/CP-02 f…</text>
</svg>
